<svg id="Camada_1" data-name="Camada 1" xmlns="http://www.w3.org/2000/svg" xmlns:xlink="http://www.w3.org/1999/xlink" viewBox="0 0 600 300"><defs><style>.cls-1{fill:url(#Gradiente_sem_nome_12);}.cls-2{fill:url(#Gradiente_sem_nome_12-2);}.cls-3{fill:url(#Gradiente_sem_nome_12-3);}.cls-4{fill:url(#Gradiente_sem_nome_12-4);}.cls-5{fill:#fff;}</style><linearGradient id="Gradiente_sem_nome_12" x1="1.85" y1="282.4" x2="423.04" y2="-316.64" gradientUnits="userSpaceOnUse"><stop offset="0" stop-color="#f2c744"/><stop offset="0.37" stop-color="#8c5511"/><stop offset="0.76" stop-color="#733b0a"/></linearGradient><linearGradient id="Gradiente_sem_nome_12-2" x1="-48.22" y1="247.19" x2="372.96" y2="-351.85" xlink:href="#Gradiente_sem_nome_12"/><linearGradient id="Gradiente_sem_nome_12-3" x1="-27.13" y1="262.02" x2="394.05" y2="-337.02" xlink:href="#Gradiente_sem_nome_12"/><linearGradient id="Gradiente_sem_nome_12-4" x1="20.37" y1="295.42" x2="441.56" y2="-303.62" xlink:href="#Gradiente_sem_nome_12"/></defs><path class="cls-1" d="M153.83,54.52q4.86,4.5,7.47,12.78a90.3,90.3,0,0,1,2.52,10.06c1-.89,1.85-1.53,2.43-2a15.55,15.55,0,0,1,6.81-3.48l-1.9-34.51H152.54a17,17,0,0,1-7,7.74,16.35,16.35,0,0,1,4.36,6.58A21.47,21.47,0,0,1,153.83,54.52Z"/><path class="cls-2" d="M38.38,73.41a59.47,59.47,0,0,1,3.88-11.29,26.49,26.49,0,0,1,5.53-7.67,23.38,23.38,0,0,1,7.74-4.67A41.51,41.51,0,0,1,66,47.53a137,137,0,0,1,13.81-.62h9.1v92.48c5.15-4.51,10.54-9.07,16.2-13.78.61-.58,1.4-1.3,2.35-2.15,1.77-7.47,3.41-14.93,4.84-22.4V46.91h11A17.12,17.12,0,0,1,126,44.18,20.29,20.29,0,0,1,123.72,42a19.13,19.13,0,0,1-3.2-4.71H30.64L27.16,89h8.42A151,151,0,0,1,38.38,73.41Z"/><path class="cls-3" d="M138.73,37a6.8,6.8,0,0,0,4.91-5.14c.65-2.63.51-4.74-.48-6.38a7.55,7.55,0,0,0-4.3-3.68,7.19,7.19,0,0,0-5.52.24,7.27,7.27,0,0,0-4.3,5.89,8.3,8.3,0,0,0,2.22,7.23Q134.08,38.18,138.73,37Z"/><path class="cls-4" d="M177.77,82.65c-1.12-1.16-2.49-1.2-4.13-.14-.23.17-.51.37-.78.61-1.3,1.09-3.65,3.07-7,5.87q-11.57,9.47-39.15,32c1.64-5.73,3.27-11.56,4.91-17.43q10.59-40.31,9.34-46.16c-.64-3.45-2.25-5.46-4.77-6s-4.57.75-6,4a27.37,27.37,0,0,0-1.61,5c-.41,1.88-.71,3.86-1,5.9s-.68,5.42-1.23,10.2-1.19,9.65-1.84,14.73c-2.15,12.58-4.77,25.2-7.88,37.78-2,1.74-3.44,3-4.33,3.85l-.34.34c-8.25,6.86-15.92,13.44-23,19.82Q59.75,179,43.22,199.26A299,299,0,0,0,23.1,229.81c-5.08,9.07-8.39,16.51-10,22.24s-2,10.57-1.33,14.59,2,6.92,4.16,8.73a14.89,14.89,0,0,0,8.36,3.17c6.07.65,12.31-.82,18.79-4.4a74.17,74.17,0,0,0,17.66-13.88A138.77,138.77,0,0,0,77,238.65q8.24-13.15,13.77-23.94c.55-1.06,1.06-2.12,1.6-3.21h46.31v-9.58H112.3v-37c1-2.62,2-5.42,3.1-8.35,3-8.7,5.9-17.84,8.84-27.52q11-8.81,29.35-23.19t21.73-17Q179.51,85.32,177.77,82.65ZM88.91,201.92H62.55v9.58H84.82c-2.08,4.06-4.23,8.19-6.48,12.31A189.87,189.87,0,0,1,64.7,245.64a113.64,113.64,0,0,1-14.46,16.57q-7.52,7-14.73,8.49A19.06,19.06,0,0,1,21.4,268c-2.32-1.33-3.28-3.85-3-7.63a52.74,52.74,0,0,1,3-12.62,118.28,118.28,0,0,1,6.47-14.87c2.73-5.25,5.32-9.95,7.88-14.11s4.78-7.64,6.75-10.44Q59.44,186,88.91,159.09Zm23.8-57.9c-.14.45-.27.89-.41,1.37v-6.58c.21-.17.41-.38.65-.58a10.36,10.36,0,0,1,1.74-1.33C113.87,140,113.19,142.39,112.71,144Z"/><path class="cls-5" d="M241.88,105.26q-.75,10.33-.75,21.78v39.31q0,21.93,1.1,24.17t7.86,2.24h5.17v4.34q-12.21-.48-20.68-.48T214,197.1v-4.34h5.79q4.55,0,5.93-1.21c.92-.8,1.49-2.38,1.72-4.72q.69-8.07.69-20.83V126.63q0-11.65-.48-21.37h-7q-17,0-18.71.79t-2.27,6.17l-1,9.24h-4.34l.13-8.2c0-3.32-.27-8.07-.82-14.28q37.23.48,43.78.48L275.6,99q-1.31,11.65-1.51,22.48h-4.35l-.69-9q-.41-4.7-1.17-5.55c-.51-.58-1.63-.93-3.38-1.07q-7.59-.56-17.24-.55Z"/><path class="cls-5" d="M295,163.73q.34,13.59,6.95,20.61t17.35,7a30,30,0,0,0,9.57-1.59,38.19,38.19,0,0,0,9.43-4.76l1.17,1-2.2,5.79a49.74,49.74,0,0,1-11.8,5A47.29,47.29,0,0,1,313,198.48q-14,0-22.58-8.86t-8.58-24q0-11.58,4.82-20.07,3.18-5.58,11.73-10.34A34.13,34.13,0,0,1,315,130.42q12.21,0,19.35,7.18t7.13,20.06l-.14,4.07a57.66,57.66,0,0,1-8.67,1.45q-7.36.56-20.45.55Zm.14-5.17q10.68.48,23.58.48,5.18,0,10-.48V154.7a28.1,28.1,0,0,0-2.42-11.52,12.53,12.53,0,0,0-5.31-5.62,16.9,16.9,0,0,0-8.75-2.24A15.16,15.16,0,0,0,299.87,141Q295.25,146.63,295.12,158.56Z"/><path class="cls-5" d="M401.37,187.31l1.86,1.65-2.82,4.42a42.15,42.15,0,0,1-9.66,3.82,40.59,40.59,0,0,1-10.13,1.28q-10.14,0-17.21-3.86a26.64,26.64,0,0,1-10.93-11.17,36.76,36.76,0,0,1-3.86-17.38,37.37,37.37,0,0,1,3-15.48,24.41,24.41,0,0,1,8.31-10.31,82.72,82.72,0,0,1,13.34-7.3,30.34,30.34,0,0,1,12.62-2.56,41.65,41.65,0,0,1,9.13.87,36.52,36.52,0,0,1,8.24,3.08,106.58,106.58,0,0,0-1.86,18.26H397v-3.45q0-4.41-1.28-6.24t-5.83-3.62a26.71,26.71,0,0,0-9.92-1.79q-9.31,0-14.35,5.68t-5,17q0,14.53,7.45,23.28a21.52,21.52,0,0,0,17.23,7.92,32.39,32.39,0,0,0,8.14-1A39.12,39.12,0,0,0,401.37,187.31Z"/><path class="cls-5" d="M472.45,98.9a11.37,11.37,0,0,1,6.43,6.42c1.17,3,1.67,5.16,1.48,6.57a2.68,2.68,0,0,1-2.12,2.33,4.07,4.07,0,0,1-3.25-.71,2.77,2.77,0,0,1-1.41-2.61c0-.19,0-.56.07-1.13s.07-1.17.07-1.83a21.65,21.65,0,0,0-.14-2.26,5.94,5.94,0,0,0-4.09-4.1q-4.25-1.55-11.3-.28-2.4.42-5.23,1.13,2.13,4.09,2.4,17.51a141.72,141.72,0,0,1-2,24,36.28,36.28,0,0,1,13-2c1.13.09,1.6.73,1.41,1.9s-.94,1.68-2.26,1.49a29.91,29.91,0,0,0-12.71,1.83,147.06,147.06,0,0,1-7.06,24.29,79.39,79.39,0,0,1-14.4,23.59,48,48,0,0,1-6.22,6.07,8,8,0,0,1-4.94,1.27,5.47,5.47,0,0,1-4.38-3.25q-3.39-7.91-.14-18.64a48.82,48.82,0,0,1,9.46-16A93.35,93.35,0,0,1,438,152.14a50.45,50.45,0,0,1,11.73-6.92c.47-3.11.79-6.17,1-9.18a96.62,96.62,0,0,0-.84-17c-.85-7.11-1.84-12-3-14.76a76.93,76.93,0,0,0-11.44,5.09,50.9,50.9,0,0,0-10.66,8,55.38,55.38,0,0,0-7.84,9.25q-1.41,2.11-2.68.7a2.24,2.24,0,0,1,0-2.82,43.39,43.39,0,0,1,8.54-9.46A82.54,82.54,0,0,1,435,106.24a66.92,66.92,0,0,1,12.21-5.72,42,42,0,0,1,10.24-2.47,54,54,0,0,1,8-.49A18.87,18.87,0,0,1,472.45,98.9Zm-29.94,71.59a107.75,107.75,0,0,0,6.64-21.88,40,40,0,0,0-10.87,6.92q-17.52,15-20.48,28.52a24.15,24.15,0,0,0-.42,8.61q.56,5.37,2.54,6.36,1.83,1.13,5.36-2.26a62.49,62.49,0,0,0,5.09-5.79Q436.58,183.35,442.51,170.49Z"/><path class="cls-5" d="M515.94,153.55a1.42,1.42,0,0,1,2.41-.14,2,2,0,0,1-.15,2.68q-1.41,1.83-8.47,10.17t-11.58,13.55c-2.35,2.64-4.43,4.85-6.21,6.64q-2,2-3.39,3.25l-1.7,1.69c-.75.57-1.6,1.23-2.54,2q-3.53,2.12-5.65.57-2.12-1.84-1.41-5.79a14.27,14.27,0,0,1,.71-3,14.82,14.82,0,0,1,.85-2.4q.69-1.83,2-4.38c1.22-2.63,2.83-5.69,4.8-9.18a32.71,32.71,0,0,1-8.33,5.79c-4.23,1.89-8,1.65-11.15-.7-1.13-.76-1.7-2.17-1.7-4.24a14.45,14.45,0,0,1,.57-3.67,37.65,37.65,0,0,1,2-6.21q1.56-4.09,4.24-9.61a121.9,121.9,0,0,1,6.92-12.14,40.05,40.05,0,0,1,4.31-5.93,8.31,8.31,0,0,1,3.31-2.26c1.6-.47,2.71-.05,3.32,1.27a5.09,5.09,0,0,1,.22,3.95,3.47,3.47,0,0,1-1.06,1.42c-.62.56-1.56,1.5-2.83,2.82s-2.56,2.78-3.88,4.38a77.8,77.8,0,0,0-7.91,11.15,82.12,82.12,0,0,0-4.09,8.19q-1,2.69-1.56,4.8a11,11,0,0,0-.28,2.41,1.15,1.15,0,0,0,.56,1.13A5.17,5.17,0,0,0,471.6,173a10,10,0,0,0,4.38-.91,28.39,28.39,0,0,0,8.62-6.5,76.25,76.25,0,0,0,7.48-9.18q2-2.53,4.09-5.79l1-1.69.43-.71v0l.42-.7a1.74,1.74,0,0,1,1.27-.85,1.39,1.39,0,0,1,1.27.28,3.25,3.25,0,0,1,.57,1.27,2.8,2.8,0,0,1-.14.85,6,6,0,0,0-.43,1.13c-.19.38-.52,1-1,1.84q-1.83,3.38-5.43,9.17t-6.64,11q-3,5.22-5.3,10.17c-.56,1.22-1.13,2.59-1.69,4.09a13.78,13.78,0,0,0-.57,3.39,1.51,1.51,0,0,0,.85,1.34,1.27,1.27,0,0,0,1.56-.07,18.76,18.76,0,0,0,3-2,137,137,0,0,0,12-12.56Q505.78,167,515.94,153.55Z"/><path class="cls-5" d="M555.34,132.37a.92.92,0,0,1,1.2.49,2.73,2.73,0,0,1,.43,1.69,1.26,1.26,0,0,1-.92,1.2q-8.61,2.69-17.94,9.89a94.64,94.64,0,0,0-16.8,17.23q-2.12,7.9-4,14.54a40.45,40.45,0,0,1-3.38,7.91,7.08,7.08,0,0,1-2.12,2.26,2.52,2.52,0,0,1-2.12.57,2.82,2.82,0,0,1-2.12-1.13,5.61,5.61,0,0,1-.7-2,10.85,10.85,0,0,1-.15-1.41,10,10,0,0,1,.29-1.7,5.24,5.24,0,0,1,.42-1.41q2.68-8.06,10.59-18.36,1-4.09,1.84-9.18a124.11,124.11,0,0,0,1.41-13.41V133a5.53,5.53,0,0,1,.21-1.69,3.87,3.87,0,0,1,.64-1.2c.65-.85,1.69-1.08,3.1-.71a5.29,5.29,0,0,1,3.11,2q.71,1.13-1.69,10c-.19.76-.34,1.32-.43,1.7q-.71,2.68-3.39,13.27a105,105,0,0,1,14.69-13.7A78.73,78.73,0,0,1,555.34,132.37Zm-43.92,50.27a64.93,64.93,0,0,0,2.69-6.07q.84-2.69,1.83-6.08a46.24,46.24,0,0,0-5.65,12.43,3.67,3.67,0,0,0,0,1.41l.15-.14C510.81,183.63,511.14,183.11,511.42,182.64Z"/><path class="cls-5" d="M586.13,153.12c.65-.84,1.29-1,1.9-.35s.59,1.39-.07,2.33q-3,4.38-7.84,10.45a162.29,162.29,0,0,1-11.44,12.71q-6.55,6.65-10.94,8.9a10.09,10.09,0,0,1-5.43,1.13,9.47,9.47,0,0,1-5.3-1.7,12,12,0,0,1-4.38-7.34,21.62,21.62,0,0,1-.56-6.07c.19-1.41.37-2.8.56-4.17s.4-2.56.64-3.6.51-2.16.85-3.39.61-2.19.84-2.89.52-1.63.85-2.76.59-1.93.78-2.4q3.52-10.31,3.53-10.45c.84-2.54,2-4.24,3.32-5.08a3.58,3.58,0,0,1,3.59-.5,3.62,3.62,0,0,1,2,2.05,2.51,2.51,0,0,1,.28,1.13,5.15,5.15,0,0,1-.14,1.2,10.36,10.36,0,0,1-.28,1.06,7.38,7.38,0,0,1-.64,1.27c-.33.57-.61,1-.84,1.34s-.59.87-1.06,1.63-.85,1.32-1.13,1.69a35.89,35.89,0,0,0-2.82,5.86q-1.85,4.46-3.82,10.52A30.13,30.13,0,0,0,547,177.34c.28,3.72,1.65,6.24,4.09,7.56,1.7.85,3.93.52,6.71-1a37.57,37.57,0,0,0,8.12-6.07,116.34,116.34,0,0,0,8.48-9.25q4.51-5.44,7.13-9T586.13,153.12Zm-24-22.45a4.18,4.18,0,0,1-3.53-2.82,4.76,4.76,0,0,1,.7-4.31,4.13,4.13,0,0,1,3.82-1.91A4.7,4.7,0,0,1,566,122.9a3.74,3.74,0,0,1,1.2,2.83,5.53,5.53,0,0,1-1.34,3.6A3.94,3.94,0,0,1,562.12,130.67Z"/></svg>