<svg id="Camada_1" data-name="Camada 1" xmlns="http://www.w3.org/2000/svg" xmlns:xlink="http://www.w3.org/1999/xlink" viewBox="0 0 300.26 300"><defs><style>.cls-1{fill:url(#Gradiente_sem_nome_12);}.cls-2{fill:url(#Gradiente_sem_nome_12-2);}.cls-3{fill:url(#Gradiente_sem_nome_12-3);}.cls-4{fill:url(#Gradiente_sem_nome_12-4);}</style><linearGradient id="Gradiente_sem_nome_12" x1="50.26" y1="292.1" x2="502.29" y2="-350.82" gradientUnits="userSpaceOnUse"><stop offset="0" stop-color="#f2c744"/><stop offset="0.37" stop-color="#8c5511"/><stop offset="0.76" stop-color="#733b0a"/></linearGradient><linearGradient id="Gradiente_sem_nome_12-2" x1="-3.48" y1="254.31" x2="448.55" y2="-388.61" xlink:href="#Gradiente_sem_nome_12"/><linearGradient id="Gradiente_sem_nome_12-3" x1="19.15" y1="270.22" x2="471.19" y2="-372.69" xlink:href="#Gradiente_sem_nome_12"/><linearGradient id="Gradiente_sem_nome_12-4" x1="70.14" y1="306.07" x2="522.17" y2="-336.85" xlink:href="#Gradiente_sem_nome_12"/></defs><path class="cls-1" d="M213.37,47.52q5.22,4.83,8,13.72A97.42,97.42,0,0,1,224.1,72c1.09-1,2-1.65,2.6-2.19A16.81,16.81,0,0,1,234,66.11l-2-37H212a18.13,18.13,0,0,1-7.5,8.3,17.65,17.65,0,0,1,4.69,7.07A23.71,23.71,0,0,1,213.37,47.52Z"/><path class="cls-2" d="M89.46,67.8a63.66,63.66,0,0,1,4.17-12.12,28.49,28.49,0,0,1,5.93-8.23,25.37,25.37,0,0,1,8.31-5A45.13,45.13,0,0,1,119.1,40a147.45,147.45,0,0,1,14.83-.66h9.77v99.25c5.52-4.83,11.3-9.74,17.38-14.79.66-.62,1.5-1.39,2.52-2.3,1.91-8,3.66-16,5.2-24V39.36h11.82a18.41,18.41,0,0,1,2.93-2.93,20.76,20.76,0,0,1-2.49-2.3,20.26,20.26,0,0,1-3.44-5.05H81.15L77.42,84.52h9A162.5,162.5,0,0,1,89.46,67.8Z"/><path class="cls-3" d="M197.16,28.67a7.27,7.27,0,0,0,5.27-5.52c.7-2.82.55-5.09-.51-6.84a8.19,8.19,0,0,0-4.61-4,8,8,0,0,0-10.54,6.59,8.89,8.89,0,0,0,2.38,7.76Q192.17,30,197.16,28.67Z"/><path class="cls-4" d="M239.06,77.71c-1.2-1.24-2.67-1.28-4.42-.14a10,10,0,0,0-.85.66c-1.39,1.17-3.91,3.29-7.53,6.29q-12.4,10.16-42,34.29c1.76-6.15,3.52-12.41,5.27-18.7q11.37-43.26,10-49.55c-.69-3.7-2.41-5.86-5.12-6.44s-4.91.8-6.48,4.32a29.9,29.9,0,0,0-1.72,5.41,63.87,63.87,0,0,0-1,6.33c-.3,2.2-.74,5.82-1.32,10.95s-1.28,10.35-2,15.81q-3.45,20.25-8.45,40.54c-2.16,1.87-3.7,3.22-4.65,4.14l-.37.36c-8.85,7.36-17.09,14.42-24.73,21.27q-31.29,27.83-49,49.62a320.09,320.09,0,0,0-21.59,32.79c-5.46,9.73-9,17.71-10.69,23.86S60.26,270.87,61,275.18s2.2,7.43,4.47,9.37a15.86,15.86,0,0,0,9,3.41c6.52.69,13.21-.88,20.17-4.73a79.35,79.35,0,0,0,19-14.89,148.87,148.87,0,0,0,17.39-23.2q8.84-14.12,14.78-25.69c.59-1.14,1.14-2.27,1.72-3.44h49.7V205.72H168.8V166c1.06-2.82,2.16-5.82,3.33-9,3.18-9.34,6.33-19.14,9.48-29.54q11.85-9.44,31.51-24.88C226.18,92.31,234,86.2,236.43,84.3Q240.93,80.57,239.06,77.71Zm-95.36,128H115.41V216H139.3c-2.23,4.35-4.53,8.78-7,13.21a203.51,203.51,0,0,1-14.64,23.42,121.67,121.67,0,0,1-15.51,17.79q-8.07,7.51-15.81,9.11a20.54,20.54,0,0,1-15.15-2.89c-2.49-1.43-3.52-4.14-3.19-8.2a56.78,56.78,0,0,1,3.19-13.54,127.16,127.16,0,0,1,7-16c2.93-5.63,5.71-10.68,8.45-15.15s5.13-8.19,7.25-11.2q18.17-24,49.81-52.84Zm25.54-62.13c-.15.47-.29.95-.44,1.46V138c.22-.19.44-.41.7-.63a11.37,11.37,0,0,1,1.86-1.42C170.48,139.27,169.75,141.83,169.24,143.59Z"/></svg>